# This file uses centimeters as units for non-parametric coordinates.

mtllib 10.mtl
g default
v -320.725784 765.933792 34.268126
v -360.579065 765.933792 53.241768
v -341.114136 765.933878 20.601268
v -351.275405 765.933792 56.045071
v -320.725784 765.933792 51.953130
v -320.725784 757.745035 35.040327
vt 0.575290 0.497421
vt 0.521175 0.513726
vt 0.552532 0.415137
vt 0.343486 0.387061
vt 0.809310 0.438894
vt 0.761594 0.443400
vt 0.462074 0.307569
vn 1.000000 -0.000000 0.000000
vn 1.000000 -0.000000 0.000000
vn 1.000000 -0.000000 0.000000
vn 0.000001 1.000000 0.000003
vn 0.000001 1.000000 0.000003
vn 0.000001 1.000000 0.000003
vn 0.000001 1.000000 0.000001
vn 0.000000 1.000000 0.000000
vn 0.012242 -0.925477 0.378605
vn 0.012242 -0.925477 0.378605
vn 0.012242 -0.925477 0.378605
vn 0.012242 -0.925477 0.378605
vn -0.151151 -0.936139 -0.317485
vn -0.151151 -0.936139 -0.317485
vn -0.151151 -0.936139 -0.317485
vn -0.151151 -0.936139 -0.317485
s off
g j gareki
usemtl aiStandardSurface39SG
f 1/6/1 5/3/2 6/5/3
s 1
f 3/7/4 2/1/5 4/2/6 1/4/7
f 1/4/7 4/2/6 5/3/8
s off
f 4/2/9 2/1/10 6/5/11 5/3/12
f 6/5/13 2/1/14 3/7/15 1/6/16
