# This file uses centimeters as units for non-parametric coordinates.

mtllib 6.mtl
g default
v -401.060776 765.933792 -32.834072
v -401.060776 765.933792 -14.469384
v -401.060776 765.933792 2.821109
v -401.060776 754.679885 2.821114
v -401.060776 750.784639 -1.074047
v -401.060776 750.784639 -10.574222
v -401.060776 754.679885 -14.469384
v -401.060776 754.679885 -32.834072
v -401.060776 750.784639 -36.729235
v -401.060776 741.820645 -36.729235
v -401.060776 737.925484 -32.834072
v -401.060776 737.925484 -22.998413
v -401.060776 733.163397 -32.834072
v -361.851677 754.679885 2.821114
v -378.123633 750.784639 -10.574222
v -374.308041 754.679885 -14.469384
v -371.279600 750.784639 -1.074047
v -401.060776 765.933792 -39.439742
v -363.809770 765.933792 -14.469384
v -365.392930 754.679885 -14.469384
v -392.789567 754.679885 -32.834072
v -400.409424 741.820816 -36.729240
v -395.146588 737.925484 -32.834072
v -401.060776 741.820645 -37.165855
v -401.060776 737.925484 -36.798536
v -401.060776 754.679885 -38.378482
v -383.902192 737.925570 -25.296688
v -401.060776 731.535656 -36.195982
v -391.206390 765.933792 -32.834072
v -360.130068 750.784639 -10.574222
v -399.148400 750.784639 -36.729235
v -401.060776 750.784639 -38.011167
v -382.633986 754.679885 -26.026516
v -356.288653 765.933878 2.821109
v -346.478540 754.679885 2.821114
v -351.070207 765.933878 -5.929712
v -401.060776 765.933792 17.513040
v -370.535154 765.933792 26.710790
v -401.060776 754.679885 11.605550
v -359.530540 754.679885 6.042978
v -347.433629 754.679885 4.422715
v -366.461508 750.784639 -1.074047
v -344.764398 753.512221 1.653482
v -371.876570 750.433421 -1.074051
v -401.060776 748.540743 -1.074047
v -401.060776 743.941001 -10.574222
v -388.356920 744.764830 -10.574222
v -360.724840 746.556891 -10.574222
vt 0.752841 0.358469
vt 0.871608 0.415179
vt 0.492426 0.358468
vt 0.990342 0.679809
vt 0.924765 0.679801
vt 0.924778 0.572789
vt 0.990355 0.572797
vt 0.752841 0.151083
vt 0.695524 0.151082
vt 0.871590 0.415481
vt 0.924761 0.712109
vt 0.752841 0.257900
vt 0.462074 0.307569
vt 0.536173 0.257899
vt 0.924789 0.472036
vt 0.625796 0.482353
vt 0.990366 0.472044
vt 0.326790 0.582449
vt 0.326786 0.606650
vt 0.195951 0.606627
vt 0.154536 0.582419
vt 0.327443 0.476972
vt 0.327445 0.501277
vt 0.209407 0.501287
vt 0.226240 0.476980
vt 0.327452 0.582306
vt 0.327453 0.606611
vt 0.319016 0.606612
vt 0.290957 0.582309
vt 0.327457 0.646162
vt 0.327458 0.670467
vt 0.301364 0.670469
vt 0.324583 0.646162
vt 0.849831 0.702490
vt 0.849830 0.705034
vt 0.827133 0.702891
vt 0.827136 0.679790
vt 0.902082 0.550089
vt 0.902089 0.494731
vt 0.902064 0.709966
vt 0.902064 0.702496
vt 0.607899 0.555619
vt 0.198573 0.608171
vt 0.799386 0.679787
vt 0.577302 0.668170
vt 0.594822 0.498431
vt 0.174784 0.606624
vt 0.079467 0.589661
vt 0.086999 0.582408
vt 0.170072 0.501290
vt 0.146849 0.476986
vt 0.144341 0.568263
vt 0.271390 0.450416
vt 0.246147 0.552276
vt 0.251754 0.703729
vt 0.149472 0.458332
vt 0.789899 0.699376
vt 0.575290 0.497421
vt 0.091196 0.575372
vn -0.000001 1.000000 0.000002
vn -0.000001 1.000000 -0.000002
vn -0.000001 1.000000 -0.000000
vn -0.000001 1.000000 0.000002
vn -1.000000 0.000000 0.000000
vn -1.000000 0.000000 0.000000
vn -1.000000 0.000000 0.000000
vn -1.000000 0.000000 0.000000
vn 0.000000 1.000000 0.000000
vn 0.000000 1.000000 0.000000
vn 0.000000 1.000000 0.000000
vn -1.000000 0.000000 0.000000
vn -1.000000 0.000000 0.000000
vn -0.000001 1.000000 -0.000001
vn -0.000001 1.000000 -0.000002
vn -0.000001 1.000000 -0.000002
vn -1.000000 -0.000000 0.000000
vn -1.000000 -0.000000 0.000000
vn -1.000000 -0.000000 0.000000
vn -1.000000 -0.000000 0.000000
vn 0.000000 -0.942779 0.333419
vn 0.000000 -0.614858 0.788638
vn -0.000000 -0.679161 0.733989
vn -0.000000 -0.970853 0.239677
vn 0.000000 -0.419707 -0.907660
vn 0.000000 -0.977524 -0.210825
vn 0.000000 -0.928144 -0.372221
vn 0.000000 -0.389761 -0.920916
vn 0.000000 -0.998580 0.053272
vn 0.000000 -0.534949 0.844884
vn 0.000000 -0.591458 0.806336
vn 0.000000 -0.999887 0.015024
vn -0.000012 0.466096 0.884735
vn -0.000006 0.994320 0.106435
vn -0.000005 0.999385 0.035067
vn -0.000013 0.516403 0.856346
vn -1.000000 0.000000 0.000000
vn -1.000000 0.000000 0.000000
vn -1.000000 0.000000 0.000000
vn -1.000000 0.000000 0.000000
vn -1.000000 0.000000 0.000000
vn -1.000000 0.000000 0.000000
vn -1.000000 0.000001 0.000000
vn -1.000000 0.000001 0.000000
vn 0.000000 -0.000002 1.000000
vn 0.000000 -0.000002 1.000000
vn -1.000000 0.000000 0.000000
vn -1.000000 0.000000 0.000000
vn -1.000000 0.000000 0.000000
vn -1.000000 0.000000 0.000000
vn -0.000000 -0.706910 0.707304
vn -0.000000 -0.707099 0.707115
vn -0.000000 -0.756946 0.653478
vn 0.000000 -0.743947 -0.668238
vn 0.000000 -0.211387 -0.977403
vn 0.000000 -1.000000 0.000000
vn 0.000000 -1.000000 0.000000
vn 0.000000 0.000000 -1.000000
vn 0.000000 0.000000 -1.000000
vn 0.000000 -1.000000 -0.000000
vn -0.000004 1.000000 -0.000002
vn -0.000004 1.000000 -0.000002
vn 0.000000 0.000000 -1.000000
vn -1.000000 0.000000 0.000000
vn 0.000000 -1.000000 0.000000
vn 0.058271 -0.898521 0.435045
vn 0.058271 -0.898521 0.435045
vn 0.058271 -0.898521 0.435045
vn 0.058271 -0.898521 0.435045
vn 0.058274 -0.898521 0.435045
vn 0.058274 -0.898521 0.435045
vn 0.058274 -0.898521 0.435045
vn 0.058274 -0.898521 0.435045
vn 0.272572 -0.944831 0.181657
vn 0.272572 -0.944831 0.181657
vn 0.272572 -0.944831 0.181657
vn 0.272572 -0.944831 0.181657
vn 0.212680 -0.968717 0.127885
vn 0.212680 -0.968717 0.127885
vn 0.212680 -0.968717 0.127885
vn 0.212680 -0.968717 0.127885
vn 0.711164 -0.332258 -0.619556
vn 0.711164 -0.332258 -0.619556
vn 0.711164 -0.332258 -0.619556
vn 0.711164 -0.332258 -0.619556
vn 0.555112 -0.078091 -0.828102
vn 0.555112 -0.078091 -0.828102
vn 0.555112 -0.078091 -0.828102
vn 0.555112 -0.078091 -0.828102
vn 0.555110 -0.078091 -0.828103
vn 0.555110 -0.078091 -0.828103
vn 0.555110 -0.078091 -0.828103
vn 0.555110 -0.078091 -0.828103
vn 0.555104 -0.078093 -0.828107
vn 0.555104 -0.078093 -0.828107
vn 0.555104 -0.078093 -0.828107
vn 0.555104 -0.078093 -0.828107
vn 0.555103 -0.078091 -0.828108
vn 0.555103 -0.078091 -0.828108
vn 0.555103 -0.078091 -0.828108
vn 0.555103 -0.078091 -0.828108
vn 0.555103 -0.078091 -0.828108
vn 0.555103 -0.078091 -0.828108
vn 0.555103 -0.078091 -0.828108
vn 0.555103 -0.078091 -0.828108
vn 0.555103 -0.078090 -0.828108
vn 0.555103 -0.078090 -0.828108
vn 0.555103 -0.078090 -0.828108
vn 0.555103 -0.078090 -0.828108
vn -0.032195 -0.769228 0.638162
vn -0.032195 -0.769228 0.638162
vn -0.032195 -0.769228 0.638162
vn -0.032195 -0.769228 0.638162
vn 0.695641 0.005269 0.718370
vn 0.695642 0.005269 0.718370
vn 0.695641 0.005269 0.718370
vn 0.695641 0.005269 0.718370
vn 0.687536 0.599326 0.410003
vn 0.687536 0.599326 0.410003
vn 0.687536 0.599326 0.410003
vn 0.687536 0.599326 0.410003
vn 0.670807 -0.107444 -0.733808
vn 0.670807 -0.107444 -0.733808
vn 0.670807 -0.107444 -0.733808
vn 0.670807 -0.107444 -0.733808
vn 0.616779 0.047655 -0.785692
vn 0.616780 0.047655 -0.785692
vn 0.616780 0.047655 -0.785692
s 1
g f gareki
usemtl aiStandardSurface39SG
f 38/58/1 34/3/2 3/1/3 37/2/4
s 2
f 1/4/5 8/5/6 7/6/7 2/7/8
s 1
f 1/8/9 29/9/10 18/10/11
s 2
f 8/5/6 1/4/5 18/10/12 26/11/13
s 1
f 2/12/14 3/1/3 34/3/2 36/13/15 19/14/16
s 2
f 39/16/17 37/2/18 3/17/19 4/15/20
f 4/15/20 3/17/19 2/7/8 7/6/7
s 4
f 4/18/21 5/19/22 17/20/23 14/21/24
s 5
f 6/22/25 7/23/26 16/24/27 15/25/28
f 8/26/29 9/27/30 31/28/31 21/29/32
f 10/30/33 11/31/34 23/32/35 22/33/36
s 2
f 10/34/37 24/35/38 25/36/39 11/37/40
f 4/15/20 7/6/7 6/38/41 5/39/42
f 8/5/6 26/11/13 32/40/43 9/41/44
s 4
f 45/42/45 44/43/46 17/20/23 5/19/22
s 2
f 13/44/47 12/45/48 11/37/40
f 46/46/49 45/42/50 5/39/42 6/38/41
s 4
f 14/21/24 17/20/23 42/47/51 43/48/52 35/49/53
s 5
f 15/25/28 16/24/27 20/50/54 30/51/55
s 4
f 17/20/23 44/43/46 42/47/51
f 14/21/24 40/52/56 39/16/57 4/18/21
s 5
f 15/25/28 47/53/58 46/46/59 6/22/25
f 33/54/60 20/50/54 16/24/27
f 9/27/30 10/30/33 22/33/36 31/28/31
f 27/55/61 23/32/35 11/31/34 12/45/62
s 2
f 32/40/43 24/35/38 10/34/37 9/41/44
s 5
f 30/51/55 48/56/63 47/53/58 15/25/28
s 2
f 25/36/39 28/57/64 13/44/47 11/37/40
s 1
f 19/14/16 29/9/10 1/8/9 2/12/14
s 5
f 21/29/32 33/54/60 16/24/27 7/23/26 8/26/29
s 4
f 35/49/53 41/59/65 40/52/56 14/21/24
s off
f 44/43/66 45/42/67 46/46/68 47/53/69
f 42/47/70 44/43/71 47/53/72 48/56/73
f 48/56/74 30/51/75 43/48/76 42/47/77
f 12/45/78 13/44/79 23/32/80 27/55/81
f 13/44/82 28/57/83 22/33/84 23/32/85
f 25/36/86 24/35/87 22/33/88 28/57/89
f 24/35/90 32/40/91 31/28/92 22/33/93
f 21/29/94 31/28/95 32/40/96 26/11/97
f 18/10/98 29/9/99 21/29/100 26/11/101
f 29/9/102 19/14/103 33/54/104 21/29/105
f 20/50/106 33/54/107 19/14/108 36/13/109
f 38/58/110 37/2/111 39/16/112 40/52/113
f 34/3/114 38/58/115 40/52/116 41/59/117
f 36/13/118 34/3/119 41/59/120 35/49/121
f 35/49/122 43/48/123 20/50/124 36/13/125
f 30/51/126 20/50/127 43/48/128
