# This file uses centimeters as units for non-parametric coordinates.

mtllib 7.mtl
g default
v -292.582332 726.671663 1.682778
v -292.582332 726.671663 24.517237
v -292.582332 726.671663 42.881927
v -292.582332 726.671663 60.172425
v -292.582332 741.820645 46.777092
v -292.582332 737.925484 42.881927
v -362.961283 726.671663 11.109670
v -292.582332 737.727683 24.517237
v -292.582332 737.925484 24.926138
v -292.582332 737.925484 58.173925
v -292.582332 745.722244 46.777092
v -362.961283 731.535656 21.155337
v -362.961283 726.671663 21.614012
v -331.233584 726.671663 42.881927
v -305.439453 726.671663 60.172425
v -292.582332 726.671663 68.790884
v -292.582332 730.937530 68.388619
v -323.291604 741.820559 46.777092
v -329.650416 737.925484 42.881927
v -345.802699 737.925570 32.054627
v -322.625325 746.556891 46.777092
vt 0.990394 0.572768
vt 0.990409 0.679780
vt 0.925985 0.679789
vt 0.924831 0.677406
vt 0.924817 0.572777
vt 0.343485 0.467902
vt 0.418268 0.467902
vt 0.568298 0.568471
vt 0.343485 0.568471
vt 0.016915 0.437446
vt 0.152423 0.606624
vt 0.105592 0.493244
vt 0.016941 0.446217
vt 0.990402 0.811333
vt 0.924282 0.483823
vt 0.990380 0.472015
vt 0.757195 0.754645
vt 0.343485 0.806101
vt 0.343485 0.675288
vt 0.757847 0.695466
vt 0.016933 0.672295
vt 0.251754 0.703729
vt 0.180491 0.751507
vt 0.016940 0.751519
vt 0.666930 0.419784
vt 0.016941 0.775824
vt 0.789899 0.699376
vt 0.965517 0.424142
vt 0.879650 0.550004
vt 0.902117 0.550083
vn 1.000000 0.000000 0.000000
vn 1.000000 0.000000 0.000000
vn 1.000000 0.000000 0.000000
vn 1.000000 0.000000 0.000000
vn 1.000000 0.000000 0.000000
vn 0.000000 -1.000000 0.000000
vn 0.000000 -1.000000 0.000000
vn 0.000000 -1.000000 0.000000
vn 0.000000 -1.000000 0.000000
vn 0.309146 0.426172 -0.850180
vn -0.000001 0.524367 -0.851493
vn -0.000000 0.000000 -1.000000
vn 0.087293 0.000000 -0.996183
vn 1.000000 0.000000 0.000000
vn 1.000000 0.000000 0.000000
vn 1.000000 0.000000 0.000000
vn 0.000000 -1.000000 0.000000
vn 0.000000 -1.000000 0.000000
vn 0.000000 -1.000000 0.000000
vn 0.000000 -1.000000 0.000000
vn 0.000001 1.000000 0.000002
vn 0.000001 1.000000 0.000002
vn 0.000001 0.998751 -0.049963
vn 0.000001 0.986996 -0.160746
vn 0.000000 -1.000000 0.000000
vn -1.000000 0.000000 0.000000
vn -1.000000 0.000000 0.000000
vn -1.000000 0.000000 0.000000
vn 1.000000 0.000000 0.000000
vn 1.000000 0.000000 0.000000
vn -0.058271 0.898522 -0.435044
vn -0.058271 0.898522 -0.435044
vn -0.058271 0.898522 -0.435044
vn -0.058271 0.898522 -0.435044
vn -0.401768 0.910401 0.098758
vn -0.401768 0.910401 0.098758
vn -0.401768 0.910400 0.098758
vn -0.401768 0.910400 0.098758
vn -0.555103 0.078091 0.828108
vn -0.555103 0.078091 0.828108
vn -0.555103 0.078091 0.828108
vn -0.555103 0.078091 0.828108
vn -0.555103 0.078091 0.828108
vn -0.555103 0.078091 0.828108
vn -0.555103 0.078091 0.828108
vn -0.555103 0.078091 0.828108
vn -0.555103 0.078091 0.828108
vn -0.555103 0.078091 0.828108
vn -0.555103 0.078091 0.828108
vn -0.555103 0.078091 0.828108
vn -0.555104 0.078089 0.828107
vn -0.555104 0.078089 0.828107
vn -0.555104 0.078089 0.828107
vn 0.022925 0.825128 0.564480
vn 0.022925 0.825128 0.564480
vn 0.022925 0.825128 0.564480
vn 0.022925 0.825128 0.564480
s 1
g g gareki
usemtl aiStandardSurface39SG
f 3/1/1 2/2/2 8/3/3 9/4/4 6/5/5
s 2
f 4/6/6 15/7/7 14/8/8 3/9/9
s 1
f 5/10/10 18/11/11 21/12/12 11/13/13
f 1/14/14 8/3/3 2/2/2
f 3/1/1 6/5/5 10/15/15 4/16/16
s 2
f 7/17/17 1/18/18 2/19/19 13/20/20
s 1
f 9/21/21 20/22/22 19/23/23 6/24/24
s 2
f 16/25/25 15/7/7 4/6/6
f 14/8/8 13/20/20 2/19/19 3/9/9
s 1
f 19/23/23 18/11/11 5/26/10 6/24/24
s off
f 13/20/26 12/27/27 7/17/28
s 1
f 10/15/15 17/28/29 16/25/30 4/16/16
f 11/29/13 10/15/15 6/5/5 5/30/10
s off
f 1/18/31 7/17/32 20/22/33 9/21/34
f 7/17/35 12/27/36 19/23/37 20/22/38
f 13/20/39 14/8/40 19/23/41 12/27/42
f 14/8/43 15/7/44 18/11/45 19/23/46
f 15/7/47 16/25/48 21/12/49 18/11/50
f 16/25/51 17/28/52 21/12/53
f 11/13/54 21/12/55 17/28/56 10/15/57
