# This file uses centimeters as units for non-parametric coordinates.

mtllib 9.mtl
g default
v -388.015969 765.933792 77.602249
v -388.015969 765.933792 59.237555
v -388.015969 765.933792 41.947060
v -388.015969 754.679885 59.237555
v -388.015969 750.784639 81.497406
v -388.015969 754.679885 77.602249
v -388.015969 765.933792 55.160381
v -388.015969 765.933792 92.549467
v -388.015969 750.784639 85.497381
v -388.015969 754.679885 87.310638
v -388.015969 765.933792 37.824428
v -374.333700 765.933792 41.947060
v -362.965504 754.679971 59.237555
v -388.015969 751.298287 55.855929
v -388.015969 754.679885 51.689574
v -388.015969 760.676343 44.301714
v -375.726528 765.933792 77.602249
v -364.774879 765.933792 59.237555
v -364.843743 750.784639 81.497406
v -365.916424 754.679885 77.602249
v -360.114818 765.933792 51.423190
v -384.942810 765.933792 93.056866
v -356.183455 754.679971 61.281069
vt 0.752840 0.568472
vt 0.752840 0.675289
vt 0.681359 0.675289
vt 0.617660 0.568471
vt 0.924814 0.261650
vt 0.990391 0.261658
vt 0.990388 0.285416
vt 0.933509 0.354917
vt 0.924809 0.305633
vt 0.924826 0.154638
vt 0.990404 0.154646
vt 0.327458 0.582345
vt 0.327454 0.603446
vt 0.216930 0.582326
vt 0.327476 0.477011
vt 0.327472 0.501317
vt 0.229964 0.501300
vt 0.225236 0.476994
vt 0.902131 0.131938
vt 0.902134 0.108630
vt 0.924833 0.098067
vt 0.990414 0.067547
vt 0.752840 0.762229
vt 0.734965 0.765180
vt 0.673258 0.467902
vt 0.752841 0.443924
vt 0.752841 0.467903
vt 0.990376 0.386433
vt 0.990379 0.362411
vt 0.905106 0.281353
vt 0.187008 0.573304
vt 0.590637 0.522575
vt 0.752840 0.544757
vn 0.000000 1.000000 0.000000
vn 0.000000 1.000000 0.000000
vn 0.000000 1.000000 0.000000
vn 0.000000 1.000000 0.000000
vn -1.000000 0.000000 0.000000
vn -1.000000 0.000000 0.000000
vn -1.000000 0.000000 0.000000
vn -1.000000 0.000000 0.000000
vn -1.000000 0.000000 0.000000
vn -1.000000 0.000000 0.000000
vn -1.000000 0.000000 0.000000
vn 0.000002 -0.996945 0.078108
vn 0.000002 -0.707110 0.707104
vn 0.000002 -0.999982 0.005995
vn 0.000000 -0.707099 -0.707115
vn 0.000001 -0.988884 -0.148691
vn 0.000002 -0.994253 -0.107052
vn 0.000000 -0.707099 -0.707115
vn -1.000000 0.000000 0.000000
vn -1.000000 0.000000 0.000000
vn -1.000000 0.000000 0.000000
vn -1.000000 0.000000 0.000000
vn 0.000000 1.000000 0.000000
vn 0.000000 1.000000 0.000000
vn 0.000000 1.000000 0.000000
vn 0.000000 1.000000 0.000000
vn 0.000000 1.000000 0.000000
vn -1.000000 0.000000 0.000000
vn -1.000000 0.000000 0.000000
vn -1.000000 0.000000 0.000000
vn 0.000002 -1.000000 -0.000002
vn 0.000000 1.000000 0.000000
vn 0.000000 1.000000 0.000000
vn 0.687533 0.599328 0.410006
vn 0.687533 0.599328 0.410006
vn 0.687533 0.599328 0.410006
vn 0.687533 0.599328 0.410006
vn 0.687533 0.599328 0.410006
vn 0.687533 0.599328 0.410006
vn 0.687533 0.599328 0.410006
vn 0.687533 0.599328 0.410006
vn 0.116966 -0.462332 0.878959
vn 0.116966 -0.462332 0.878959
vn 0.116966 -0.462332 0.878959
vn 0.116966 -0.462332 0.878959
vn 0.116966 -0.462332 0.878959
vn 0.000000 -1.000000 0.000000
vn 0.000000 -1.000000 0.000000
vn 0.000000 -1.000000 0.000000
vn 0.965751 0.155272 -0.207886
vn 0.965751 0.155272 -0.207886
vn 0.965751 0.155272 -0.207886
vn 0.965751 0.155272 -0.207886
vn 0.272489 -0.714608 -0.644271
vn 0.272489 -0.714608 -0.644272
vn 0.272489 -0.714608 -0.644272
vn 0.272489 -0.714608 -0.644272
vn 0.186560 -0.762801 -0.619137
vn 0.186560 -0.762801 -0.619137
vn 0.186559 -0.762801 -0.619137
vn 0.186559 -0.762801 -0.619137
vn 0.186559 -0.762801 -0.619137
s 1
g i gareki
usemtl aiStandardSurface39SG
f 2/1/1 1/2/2 17/3/3 18/4/4
s 2
f 4/5/5 2/6/6 7/7/7 16/8/8 15/9/9
f 4/5/5 6/10/10 1/11/11 2/6/6
s 3
f 4/12/12 14/13/13 13/14/14
f 5/15/15 6/16/16 20/17/17 19/18/18
s 2
f 5/19/19 9/20/20 10/21/21 6/10/10
f 10/21/21 8/22/22 1/11/11 6/10/10
s 1
f 8/23/23 22/24/24 17/3/3 1/2/2
f 12/25/25 11/26/26 3/27/27
s 2
f 11/28/28 16/8/8 3/29/29
f 15/9/9 14/30/30 4/5/5
f 16/8/8 7/7/7 3/29/29
s 3
f 23/31/31 20/17/17 6/16/16 4/12/12 13/14/14
s 1
f 21/32/32 12/25/25 3/27/27 7/33/33
f 18/4/4 21/32/32 7/33/33 2/1/1
s off
f 18/4/34 17/3/35 20/17/36 23/31/37
f 19/18/38 20/17/39 17/3/40 22/24/41
f 10/21/42 9/20/43 19/18/44 22/24/45 8/22/46
f 19/18/47 9/20/48 5/15/49
f 23/31/50 13/14/51 21/32/52 18/4/53
f 12/25/54 21/32/55 13/14/56 14/13/57
f 12/25/58 14/30/59 15/9/60 16/8/61 11/26/62
